<svg width="1368" height="758" viewBox="0 0 1368 758" fill="none" xmlns="http://www.w3.org/2000/svg">
<path d="M1367 723.449V0C1367 0 1253 48.3999 1175.72 56.0375C1092.78 64.2351 1046.5 27.9331 963.409 34.2452C864.211 41.7805 817.004 92.2215 718.551 106.886C564.87 129.778 476.524 62.4856 321.971 77.8299C193.312 90.6033 0 157.216 0 157.216V723.449C0 723.449 149.706 752.971 246.861 757.176C450.473 765.987 534.204 683.226 737.078 703.214C860.97 715.42 948.336 749.565 1072.57 757.176C1188.05 764.251 1367 723.449 1367 723.449Z" fill="url(#paint0_linear)"/>
<path fill-rule="evenodd" clip-rule="evenodd" d="M838.958 718.286C836.338 717.783 833.708 717.284 831.068 716.791C831.478 715.332 831.893 713.869 832.313 712.401L840.004 714.601C839.652 715.832 839.304 717.06 838.958 718.286ZM1368 195.399C1364.88 200.518 1361.69 205.438 1358.43 210.172L1351.84 205.636C1355.07 200.949 1358.23 196.07 1361.32 190.984C1363.59 187.254 1365.82 183.356 1368 179.316V195.399ZM1326.02 249.534C1334.1 241.314 1341.92 232.376 1349.43 222.571L1343.08 217.708C1335.77 227.246 1328.17 235.934 1320.31 243.923L1326.02 249.534ZM1287.25 282.671C1296.74 275.808 1306 268.374 1314.97 260.178L1309.57 254.272C1300.85 262.243 1291.83 269.486 1282.56 276.187L1287.25 282.671ZM1244.21 309.717C1254.55 303.974 1264.72 297.921 1274.67 291.356L1270.26 284.679C1260.52 291.11 1250.53 297.056 1240.33 302.723L1244.21 309.717ZM1199.27 332.91C1209.9 327.672 1220.45 322.413 1230.84 316.943L1227.11 309.865C1216.82 315.283 1206.35 320.503 1195.73 325.734L1199.27 332.91ZM1154.22 355.327C1164.76 349.889 1175.26 344.704 1185.69 339.58L1182.16 332.4C1171.73 337.526 1161.17 342.74 1150.56 348.217L1154.22 355.327ZM1110.49 379.737C1120.63 373.528 1130.78 367.781 1140.91 362.333L1137.12 355.287C1126.88 360.791 1116.6 366.613 1106.31 372.915L1110.49 379.737ZM1069.37 408.006C1078.81 400.699 1088.3 393.995 1097.82 387.76L1093.44 381.067C1083.76 387.407 1074.09 394.233 1064.47 401.68L1069.37 408.006ZM1044.51 428.875C1048.89 424.89 1053.28 421.064 1057.7 417.385L1052.57 411.241C1048.07 414.993 1043.59 418.894 1039.12 422.959C1034.25 427.393 1029.5 431.647 1024.85 435.758L1030.14 441.752C1034.82 437.62 1039.6 433.339 1044.51 428.875ZM1002.75 465.54L1002.76 465.534L1002.84 465.469C1007.68 461.303 1012.64 457.035 1017.73 452.617L1012.49 446.576C1007.41 450.98 1002.46 455.237 997.621 459.404L997.548 459.467C992.732 463.61 988.019 467.665 983.401 471.676L988.647 477.716C993.245 473.722 997.94 469.683 1002.75 465.54ZM948.557 514.728C957.5 505.675 966.7 497.122 976.32 488.547L970.997 482.575C961.297 491.221 951.965 499.895 942.865 509.105L948.557 514.728ZM913.05 555.8C921.062 545.124 929.109 535.512 937.318 526.54L931.415 521.14C923.041 530.294 914.826 540.105 906.651 550.998L913.05 555.8ZM893.027 584.945C896.538 579.379 900.034 574.086 903.527 569.029L896.945 564.483C893.387 569.633 889.829 575.02 886.261 580.677C882.97 585.895 879.788 591.372 876.715 597.057L883.753 600.861C886.75 595.316 889.842 589.995 893.027 584.945ZM861.817 649.031C866.401 637.264 871.31 625.811 876.549 614.971L869.346 611.49C864.001 622.551 859.009 634.2 854.363 646.127L861.817 649.031ZM844.528 699.292C848.118 687.532 852.017 675.658 856.231 663.953L848.704 661.243C844.44 673.089 840.499 685.089 836.876 696.956L844.528 699.292Z" fill="black"/>
<defs>
<linearGradient id="paint0_linear" x1="1367.5" y1="193.537" x2="-13.3985" y2="722.302" gradientUnits="userSpaceOnUse">
<stop stop-color="#FFD43E"/>
<stop offset="0.807292" stop-color="#FFAA47"/>
</linearGradient>
</defs>
</svg>
