<svg width="201" height="178" viewBox="0 0 201 178" fill="none" xmlns="http://www.w3.org/2000/svg">
<path fill-rule="evenodd" clip-rule="evenodd" d="M113.121 24.7426C116.545 23.1884 120.581 24.7044 122.135 28.1286C123.689 31.5528 122.173 35.5886 118.749 37.1428C115.325 38.697 111.289 37.181 109.735 33.7568C108.181 30.3325 109.697 26.2967 113.121 24.7426ZM110.228 18.3684C117.173 15.2164 125.357 18.2909 128.509 25.2355C131.661 32.1801 128.587 40.365 121.642 43.517C114.698 46.669 106.513 43.5945 103.361 36.6499C100.209 29.7053 103.283 21.5204 110.228 18.3684ZM32.1908 105.372C35.6151 103.818 37.131 99.7824 35.5769 96.3581C34.0227 92.9339 29.9869 91.4179 26.5626 92.9721C23.1384 94.5263 21.6224 98.5621 23.1766 101.986C24.7308 105.411 28.7666 106.927 32.1908 105.372ZM35.0839 111.747C42.0285 108.595 45.103 100.41 41.951 93.4651C38.799 86.5205 30.6141 83.4459 23.6695 86.5979C16.7249 89.7499 13.6504 97.9348 16.8024 104.879C19.9544 111.824 28.1393 114.899 35.0839 111.747ZM52.3975 59.7809C53.9517 63.2051 52.4357 67.2409 49.0115 68.7951C45.5872 70.3493 41.5514 68.8333 39.9972 65.409C38.443 61.9848 39.959 57.949 43.3833 56.3948C46.8075 54.8406 50.8433 56.3566 52.3975 59.7809ZM58.7717 56.8878C61.9237 63.8324 58.8491 72.0173 51.9045 75.1693C44.9599 78.3212 36.775 75.2467 33.6231 68.3021C30.4711 61.3575 33.5456 53.1726 40.4902 50.0206C47.4348 46.8687 55.6197 49.9432 58.7717 56.8878ZM151.727 36.1632C155.151 34.609 159.187 36.125 160.741 39.5492C162.295 42.9734 160.779 47.0092 157.355 48.5634C153.931 50.1176 149.895 48.6016 148.341 45.1774C146.786 41.7531 148.302 37.7173 151.727 36.1632ZM148.834 29.789C155.778 26.637 163.963 29.7115 167.115 36.6561C170.267 43.6007 167.193 51.7856 160.248 54.9376C153.303 58.0896 145.118 55.0151 141.967 48.0705C138.815 41.1259 141.889 32.941 148.834 29.789ZM167.718 121.174C191.592 92.4349 123.938 50.0574 89.9165 65.4989C55.8951 80.9404 43.2513 159.763 80.6009 160.715C92.0373 161.006 98.8586 155.281 106.323 149.016C111.078 145.025 116.095 140.814 122.733 137.801C129.37 134.788 135.843 133.785 141.978 132.833C151.608 131.339 160.408 129.975 167.718 121.174Z" fill="black" fill-opacity="0.3"/>
</svg>
